<svg xmlns="http://www.w3.org/2000/svg" viewBox="0 0 240 240" width="480" height="480" style="image-rendering: pixelated; image-rendering: crisp-edges;">
  <defs>
    <style>
      @import url('https://fonts.googleapis.com/css2?family=Geist:wght@500&amp;display=swap');
      .wm { font-family: 'Geist', -apple-system, sans-serif; font-weight: 500; letter-spacing: -0.02em; }
    </style>
  </defs>
  <g transform="translate(80, 56) scale(5)" shape-rendering="crispEdges">
    <rect x="13" y="7" width="1" height="1" fill="#c4b28a"/>
    <rect x="14" y="7" width="1" height="1" fill="#c4b28a"/>
    <rect x="13" y="8" width="1" height="1" fill="#c4b28a"/>
    <rect x="14" y="8" width="1" height="1" fill="#c4b28a"/>
    <rect x="11" y="3" width="1" height="1" fill="#a8aac6"/>
    <rect x="12" y="3" width="1" height="1" fill="#a8aac6"/>
    <rect x="11" y="4" width="1" height="1" fill="#a8aac6"/>
    <rect x="12" y="4" width="1" height="1" fill="#a8aac6"/>
    <rect x="7"  y="2" width="1" height="1" fill="#8ba4b0"/>
    <rect x="8"  y="2" width="1" height="1" fill="#8ba4b0"/>
    <rect x="3"  y="3" width="1" height="1" fill="#7894a0"/>
    <rect x="4"  y="3" width="1" height="1" fill="#7894a0"/>
    <rect x="2"  y="7" width="1" height="1" fill="#658594"/>
    <rect x="2"  y="8" width="1" height="1" fill="#658594"/>
    <rect x="3"  y="11" width="1" height="1" fill="#54707d"/>
    <rect x="4"  y="11" width="1" height="1" fill="#54707d"/>
    <rect x="7"  y="13" width="1" height="1" fill="#445a64"/>
    <rect x="8"  y="13" width="1" height="1" fill="#445a64"/>
    <rect x="11" y="11" width="1" height="1" fill="#384a52"/>
    <rect x="12" y="11" width="1" height="1" fill="#384a52"/>
    <rect x="13" y="6"  width="1" height="1" fill="#7fb4ca" opacity="0.45"/>
    <rect x="13" y="9"  width="1" height="1" fill="#7fb4ca" opacity="0.45"/>
  
  
  </g>
  <text x="120" y="176" class="wm" font-size="32" fill="#c5c9c5" text-anchor="middle">koborin<tspan fill="#c4b28a">.ai</tspan></text>
</svg>
