<svg width="512" height="512" viewBox="0 0 16 16" xmlns="http://www.w3.org/2000/svg" shape-rendering="crispEdges">
  <rect width="16" height="16" fill="#181616"/>
  <g fill="#7fb4ca">
    <rect x="0"  y="8"  width="1" height="1"/>
    <rect x="1"  y="7"  width="1" height="1"/>
    <rect x="2"  y="6"  width="1" height="1"/>
    <rect x="3"  y="5"  width="1" height="1"/>
    <rect x="4"  y="5"  width="1" height="1"/>
    <rect x="5"  y="5"  width="1" height="1"/>
    <rect x="6"  y="6"  width="1" height="1"/>
    <rect x="7"  y="7"  width="1" height="1"/>
    <rect x="8"  y="8"  width="1" height="1"/>
    <rect x="9"  y="9"  width="1" height="1"/>
    <rect x="10" y="10" width="1" height="1"/>
    <rect x="11" y="11" width="1" height="1"/>
    <rect x="12" y="11" width="1" height="1"/>
    <rect x="13" y="11" width="1" height="1"/>
    <rect x="14" y="10" width="1" height="1"/>
    <rect x="15" y="9"  width="1" height="1"/>
  </g>
  <g fill="#658594" opacity="0.55">
    <rect x="0"  y="9"  width="1" height="1"/>
    <rect x="1"  y="8"  width="1" height="1"/>
    <rect x="2"  y="7"  width="1" height="1"/>
    <rect x="3"  y="6"  width="1" height="1"/>
    <rect x="5"  y="6"  width="1" height="1"/>
    <rect x="6"  y="7"  width="1" height="1"/>
    <rect x="7"  y="8"  width="1" height="1"/>
    <rect x="8"  y="9"  width="1" height="1"/>
    <rect x="9"  y="10" width="1" height="1"/>
    <rect x="10" y="11" width="1" height="1"/>
    <rect x="13" y="10" width="1" height="1"/>
    <rect x="14" y="9"  width="1" height="1"/>
    <rect x="15" y="8"  width="1" height="1"/>
  </g>
</svg>
